<svg width="53" height="52" viewBox="0 0 53 52" fill="none" xmlns="http://www.w3.org/2000/svg">
<path d="M9.62407 0.449219H43.2368C48.3329 0.449219 52.4532 4.56949 52.4532 9.66557V41.9772C52.4532 47.0733 48.3329 51.1936 43.2368 51.1936H9.62407C4.52798 51.1936 0.407715 47.0733 0.407715 41.9772V9.66557C0.407715 4.56949 4.52798 0.449219 9.62407 0.449219Z" fill="#61A845"/>
<path d="M23.9814 39.008L24.6869 41.8298H28.0663L28.7247 38.9609L23.9814 39.008Z" fill="#BAFD9F"/>
<path d="M25.7419 37.0127L25.8695 37.4091L25.9502 37.5838H26.7698L26.8639 37.5368L26.9848 37.2613C27.4887 35.9646 28.8123 30.4353 29.081 29.0244C29.9297 25.216 30.2775 21.3131 30.1157 17.4147C30.0319 15.8715 29.7171 14.3496 29.1818 12.8998C28.7585 11.8383 28.127 10.6222 27.0117 10.1519C25.8964 9.68165 24.6266 10.8843 24.1093 11.8921C21.3345 17.2669 23.1082 26.4579 24.4049 31.9201L24.8416 33.7946C25.1305 34.883 25.453 35.8437 25.7486 37.0396L25.7419 37.0127Z" fill="#BAFD9F"/>
<path d="M25.3991 37.2812L24.9154 36.8983C19.1576 31.5234 11.2633 13.3094 23.7061 9.95686C23.9936 9.86013 24.2965 9.81687 24.5996 9.8292C14.8241 14.0552 21.4218 30.4619 25.3991 37.2812Z" fill="#BAFD9F"/>
<path d="M27.4819 37.281L27.9657 36.8846C33.7235 31.5098 41.6178 13.2957 29.175 9.94319C28.8874 9.84646 28.5846 9.8032 28.2814 9.81553C38.0569 14.0549 31.4593 30.4617 27.4819 37.281Z" fill="#BAFD9F"/>
<path d="M19.6884 11.2598C18.4587 11.8572 17.39 12.7406 16.5718 13.8358C15.7536 14.9311 15.2096 16.2064 14.9854 17.5551L14.8779 18.6972V19.6109L15.0056 20.6254L15.0795 21.1092C16.0402 26.4168 20.4543 33.3705 24.3309 37.059C18.9561 29.9038 10.8938 18.583 19.6951 11.2598H19.6884Z" fill="#BAFD9F"/>
<path d="M33.1857 11.2598C34.4154 11.8572 35.4841 12.7406 36.3024 13.8358C37.1206 14.9311 37.6646 16.2064 37.8887 17.5551L37.9828 18.6972V19.6109L37.8551 20.6254L37.7812 21.1092C36.8205 26.4168 32.4064 33.3705 28.5298 37.059C33.9046 29.9038 41.9669 18.583 33.1656 11.2598H33.1857Z" fill="#BAFD9F"/>
</svg>
